<?xml version="1.0" encoding="utf-8"?>
<!-- Generator: Adobe Illustrator 23.0.1, SVG Export Plug-In . SVG Version: 6.00 Build 0)  -->
<svg version="1.1" id="Layer_1" xmlns="http://www.w3.org/2000/svg" xmlns:xlink="http://www.w3.org/1999/xlink" x="0px" y="0px"
	 viewBox="0 0 410 458" style="enable-background:new 0 0 410 458;" xml:space="preserve">
<style type="text/css">
	.st0{fill:#0000FF;}
</style>
<g>
	<g>
		<g>
			<path class="st0" d="M186.17,90.01c13.76,0,27.92,16.03,38.84,43.98c12.01,30.74,18.63,71.77,18.63,115.54
				s-6.61,84.81-18.63,115.54c-10.92,27.95-25.08,43.98-38.84,43.98c-13.76,0-27.92-16.03-38.84-43.98
				c-12.01-30.74-18.63-71.77-18.63-115.54s6.61-84.81,18.63-115.54C158.25,106.04,172.41,90.01,186.17,90.01 M186.17,82.01
				c-36.16,0-65.47,75-65.47,167.52s29.31,167.52,65.47,167.52s65.47-75,65.47-167.52S222.33,82.01,186.17,82.01L186.17,82.01z"/>
		</g>
		<g>
			<path class="st0" d="M324.32,329.29c-6.88,11.92-27.84,16.16-57.51,11.65c-32.62-4.97-71.47-19.75-109.38-41.64
				c-37.91-21.89-70.14-48.13-90.75-73.9c-18.74-23.43-25.55-43.71-18.66-55.63c6.88-11.92,27.84-16.16,57.51-11.65
				c32.62,4.97,71.47,19.75,109.38,41.64s70.14,48.13,90.75,73.9C324.4,297.1,331.2,317.38,324.32,329.29 M331.25,333.29
				c18.08-31.31-32.22-94.2-112.34-140.46S59.17,134.46,41.09,165.77s32.22,94.2,112.34,140.46S313.17,364.61,331.25,333.29
				L331.25,333.29z"/>
		</g>
		<g>
			<path class="st0" d="M48.02,329.29c-6.88-11.92-0.08-32.19,18.66-55.63c20.61-25.77,52.84-52.02,90.75-73.9
				s76.75-36.68,109.38-41.64c29.67-4.52,50.63-0.27,57.51,11.65c6.88,11.92,0.08,32.19-18.66,55.63
				c-20.61,25.77-52.84,52.02-90.75,73.9c-37.91,21.89-76.75,36.68-109.38,41.64C75.86,345.46,54.9,341.21,48.02,329.29
				 M41.09,333.29c18.08,31.31,97.69,19.2,177.81-27.06s130.42-109.14,112.34-140.46c-18.08-31.31-97.69-19.2-177.81,27.06
				S23.02,301.98,41.09,333.29L41.09,333.29z"/>
		</g>
		<g>
			<path class="st0" d="M186.17,90.01c13.76,0,27.92,16.03,38.84,43.98c12.01,30.74,18.63,71.77,18.63,115.54
				s-6.61,84.81-18.63,115.54c-10.92,27.95-25.08,43.98-38.84,43.98c-13.76,0-27.92-16.03-38.84-43.98
				c-12.01-30.74-18.63-71.77-18.63-115.54s6.61-84.81,18.63-115.54C158.25,106.04,172.41,90.01,186.17,90.01 M186.17,82.01
				c-36.16,0-65.47,75-65.47,167.52s29.31,167.52,65.47,167.52s65.47-75,65.47-167.52S222.33,82.01,186.17,82.01L186.17,82.01z"/>
		</g>
	</g>
	<g>
		<ellipse class="st0" cx="186.1" cy="249.3" rx="41.14" ry="41.51"/>
		<path class="st0" d="M186.1,209.29c21.86,0,39.64,17.95,39.64,40.01s-17.78,40.01-39.64,40.01c-21.86,0-39.64-17.95-39.64-40.01
			S164.24,209.29,186.1,209.29 M186.1,206.29c-23.55,0-42.64,19.26-42.64,43.01s19.09,43.01,42.64,43.01s42.64-19.26,42.64-43.01
			S209.65,206.29,186.1,206.29L186.1,206.29z"/>
	</g>
</g>
</svg>
